<svg width="44" height="48" viewBox="0 0 44 48" fill="none" xmlns="http://www.w3.org/2000/svg">
<path d="M28.7501 21.71V21.005C28.7501 17.136 25.7261 14 22.0001 14C18.2741 14 15.2501 17.136 15.2501 21.005V21.71C15.2513 22.5516 15.0111 23.3758 14.5581 24.085L13.4501 25.81C12.4391 27.385 13.2111 29.526 14.9701 30.024C19.5662 31.327 24.434 31.327 29.0301 30.024C30.7891 29.526 31.5611 27.385 30.5501 25.811L29.4421 24.086C28.9887 23.3769 28.7482 22.5527 28.7491 21.711L28.7501 21.71Z" stroke="#FEFFFC" stroke-width="1.5"/>
<path d="M17.5 31C18.155 32.748 19.922 34 22 34C24.078 34 25.845 32.748 26.5 31" stroke="#FEFFFC" stroke-width="1.5" stroke-linecap="round"/>
</svg>
