<svg width="32" height="32" viewBox="0 0 32 32" fill="none" xmlns="http://www.w3.org/2000/svg">
<rect width="32" height="32" rx="16" fill="#FDFFFB" fill-opacity="0.1"/>
<g clip-path="url(#clip0_2861_1931)">
<g clip-path="url(#clip1_2861_1931)">
<g clip-path="url(#clip2_2861_1931)">
<path d="M19.043 11.7321C19.196 11.6531 19.35 11.5741 19.58 11.5741C19.503 11.6531 19.427 11.7321 19.35 11.8911L18.429 12.7621L15.513 15.7711L14.055 17.2761C13.595 17.7511 13.134 18.1471 12.904 18.7011C12.827 18.7801 12.827 18.8591 12.827 18.9391C12.75 19.1771 12.75 19.4931 12.674 19.8101C12.597 20.2061 12.597 20.6021 12.521 20.9981C12.444 21.0771 12.368 20.9981 12.368 20.9191C12.215 20.6021 12.215 20.2061 12.138 19.8891C12.061 19.4931 11.985 19.0971 11.831 18.7801C11.14 17.1171 11.14 17.1171 12.522 16.2461L19.043 11.7321ZM21.959 8.64407C21.882 8.64407 21.806 8.72307 21.652 8.72307L16.665 10.7031L8.993 13.7911L7.305 14.5041C6.998 14.5831 6.768 14.7421 6.461 14.8211C6.308 14.9001 6.154 14.9791 6.077 15.0591C6 15.1391 6 15.2171 6 15.3751C6 15.4541 6.077 15.4541 6.153 15.5331C6.613 15.9291 7.227 16.1671 7.764 16.4041C8.455 16.7211 9.222 16.9581 9.912 17.1961C10.296 17.3541 10.449 17.5131 10.526 17.9091L11.83 22.1851C11.907 22.5021 12.06 22.8181 12.444 22.7391L14.746 20.6011C14.899 20.2841 15.13 20.5221 15.283 20.6011L17.431 22.1061C17.815 22.3441 18.122 22.5811 18.505 22.8981C18.889 23.1361 19.579 23.8481 20.039 23.2941C20.116 23.1361 20.193 23.0561 20.193 22.8981L21.421 17.0381L22.342 12.7621L22.879 10.0701C22.879 9.91207 22.956 9.75307 22.956 9.59507C23.109 8.48607 22.879 8.32807 21.959 8.64507V8.64407Z" fill="#FEFFFC"/>
</g>
</g>
</g>
<defs>
<clipPath id="clip0_2861_1931">
<rect width="17" height="15" fill="white" transform="translate(6 8.5)"/>
</clipPath>
<clipPath id="clip1_2861_1931">
<rect width="17" height="15" fill="white" transform="translate(6 8.5)"/>
</clipPath>
<clipPath id="clip2_2861_1931">
<rect width="17" height="15" fill="white" transform="translate(6 8.5)"/>
</clipPath>
</defs>
</svg>
