<svg width="40" height="40" viewBox="0 0 40 40" fill="none" xmlns="http://www.w3.org/2000/svg">
<path d="M20.0002 36.6666C29.2052 36.6666 36.6668 29.2049 36.6668 19.9999C36.6668 10.7949 29.2052 3.33325 20.0002 3.33325C10.7952 3.33325 3.3335 10.7949 3.3335 19.9999C3.3335 22.6666 3.96016 25.1866 5.07183 27.4216C6.8268 30.95 10.6186 33.95 12.5802 34.9266C14.8851 36.0742 17.4254 36.6699 20.0002 36.6666Z" stroke="#1CC41C" stroke-width="1.8"/>
<path d="M20.0003 25.5549C21.842 25.5549 23.3337 24.3116 23.3337 22.7783C23.3337 21.2449 21.842 19.9999 20.0003 19.9999C18.1587 19.9999 16.667 18.7566 16.667 17.2216C16.667 15.6883 18.1587 14.4449 20.0003 14.4449M20.0003 25.5549C18.1587 25.5549 16.667 24.3116 16.667 22.7783M20.0003 25.5549V26.6666M20.0003 14.4449V13.3333M20.0003 14.4449C21.842 14.4449 23.3337 15.6883 23.3337 17.2216" stroke="#1CC41C" stroke-width="1.8" stroke-linecap="round"/>
</svg>
