<svg width="40" height="40" viewBox="0 0 40 40" fill="none" xmlns="http://www.w3.org/2000/svg">
<path d="M20.0002 36.6666C29.2052 36.6666 36.6668 29.2049 36.6668 19.9999C36.6668 10.7949 29.2052 3.33325 20.0002 3.33325C10.7952 3.33325 3.3335 10.7949 3.3335 19.9999C3.3335 22.6666 3.96016 25.1866 5.07183 27.4216C6.8268 30.95 10.6186 33.95 12.5802 34.9266C14.8851 36.0742 17.4254 36.6699 20.0002 36.6666Z" stroke="#2064E6" stroke-width="1.8"/>
<path d="M26.6668 16L21.7471 20.8898C21.0819 21.5508 20.7494 21.8814 20.3369 21.8813C19.9244 21.8813 19.5919 21.5507 18.927 20.8895L18.7674 20.7308C18.1019 20.069 17.7691 19.7381 17.3563 19.7382C16.9435 19.7384 16.611 20.0695 15.9459 20.7318L13.3335 23.3333" stroke="#2064E6" stroke-width="1.8" stroke-linecap="round" stroke-linejoin="round"/>
<path d="M26.6667 19.6972V16H22.9453" stroke="#2064E6" stroke-width="1.8" stroke-linecap="round" stroke-linejoin="round"/>
</svg>
