<svg width="40" height="40" viewBox="0 0 40 40" fill="none" xmlns="http://www.w3.org/2000/svg">
<path d="M20.0002 36.6666C29.2052 36.6666 36.6668 29.2049 36.6668 19.9999C36.6668 10.7949 29.2052 3.33325 20.0002 3.33325C10.7952 3.33325 3.3335 10.7949 3.3335 19.9999C3.3335 22.6666 3.96016 25.1866 5.07183 27.4216C6.8268 30.95 10.6186 33.95 12.5802 34.9266C14.8851 36.0742 17.4254 36.6699 20.0002 36.6666Z" stroke="#317B7E" stroke-width="1.8"/>
<path d="M16.2979 18.574V26.8193" stroke="#317B7E" stroke-width="1.8" stroke-linecap="round" stroke-linejoin="round"/>
<path d="M24.0161 26.8193H16.2981H13V18.5739H16.2981L20.5821 13.5759C20.9886 13.1017 21.6281 12.8978 22.2342 13.0493L22.2733 13.0591C23.3797 13.3357 23.878 14.6248 23.2455 15.5737L21.2454 18.5739H25.0056C26.0462 18.5739 26.8267 19.5259 26.6227 20.5463L25.6332 25.4936C25.479 26.2644 24.8023 26.8193 24.0161 26.8193Z" stroke="#317B7E" stroke-width="1.8" stroke-linecap="round" stroke-linejoin="round"/>
</svg>
