<svg width="848" height="545" viewBox="0 0 848 545" fill="none" xmlns="http://www.w3.org/2000/svg">
<path d="M847.767 496.072C847.106 496.106 846.444 496.154 845.787 496.217C844.569 496.368 843.369 496.565 842.174 496.832C841.255 497.079 840.358 497.357 839.465 497.677C838.852 497.93 838.258 498.204 837.666 498.497C836.684 499.048 835.746 499.65 834.823 500.297C833.151 501.554 831.583 502.915 830.068 504.351C827.627 506.7 825.215 509.085 822.599 511.24C819.716 513.616 816.385 515.396 812.982 516.902C810.076 518.185 807.027 519.12 803.912 519.736C803.326 519.854 802.739 519.958 802.144 520.053C798.241 520.675 794.276 521.07 790.323 521.116C789.743 521.123 789.168 521.126 788.588 521.129C788.588 521.129 788.588 521.129 788.585 521.126C787.723 521.128 786.863 521.123 785.999 521.1C785.503 521.087 785.006 521.071 784.508 521.047C782.279 520.94 780.07 520.736 777.853 520.492C776.885 520.385 775.904 520.243 774.941 520.076C774.144 519.938 773.337 519.816 772.541 519.663C772.425 519.641 772.309 519.619 772.194 519.595C771.166 519.388 770.139 519.185 769.121 518.947C767.857 518.656 766.606 518.339 765.354 518.018C761.534 517.032 757.793 515.748 754.12 514.321C750.318 512.844 746.587 511.152 742.971 509.266C739.856 507.642 736.806 505.914 733.779 504.126C730.959 502.465 728.169 500.752 725.359 499.067C721.304 496.658 717.244 494.255 713.163 491.893C711.289 490.81 709.404 489.744 707.501 488.712C707.097 488.49 706.696 488.274 706.288 488.056C704.04 486.85 701.73 485.773 699.404 484.726C697.583 483.95 695.752 483.203 693.894 482.517C691.742 481.723 689.564 481.018 687.364 480.364C682.353 478.977 677.268 477.897 672.21 476.687C667.413 475.535 662.664 474.18 657.918 472.819C654.152 471.743 650.377 470.661 646.509 470.002C645.611 469.893 644.714 469.812 643.81 469.768C643.286 469.772 642.768 469.786 642.241 469.816C641.292 469.934 640.355 470.103 639.417 470.309C636.885 470.975 634.411 471.803 631.959 472.718C630.741 473.204 629.529 473.704 628.329 474.232C626.927 474.853 625.562 475.527 624.197 476.222C623.098 476.839 622.014 477.472 620.934 478.13C619.82 478.805 618.763 479.582 617.704 480.347C616.872 480.993 616.043 481.637 615.237 482.317C614.446 482.983 613.681 483.675 612.919 484.367C611.559 485.7 610.246 487.061 608.961 488.464C607.729 489.805 606.583 491.224 605.445 492.645C604.323 494.122 603.234 495.62 602.174 497.142C601.04 498.773 599.973 500.46 598.9 502.132C596.605 505.71 594.325 509.298 591.925 512.809C590.707 514.585 589.448 516.336 588.128 518.041C586.9 519.625 585.617 521.156 584.305 522.672C583.167 523.986 581.932 525.243 580.675 526.445C579.977 527.115 579.282 527.784 578.562 528.432C577.651 529.245 576.725 530.031 575.788 530.815C574.374 531.998 572.858 533.048 571.357 534.117C570.934 534.415 570.484 534.683 570.051 534.964C569.741 535.164 569.44 535.366 569.124 535.552C568.112 536.146 567.104 536.735 566.073 537.287C565.126 537.791 564.178 538.275 563.212 538.744C562.261 539.204 561.288 539.621 560.318 540.045C559.443 540.425 558.541 540.74 557.652 541.083C556.6 541.486 555.52 541.855 554.434 542.16C552.403 542.73 550.367 543.276 548.286 543.647C546.212 544.019 544.136 544.34 542.036 544.534C539.996 544.725 537.951 544.896 535.9 544.939C534.939 544.963 533.972 545.01 533.01 544.998C531.76 544.983 530.505 545.005 529.259 544.952C528.131 544.903 527.006 544.854 525.878 544.804C524.832 544.758 523.788 544.66 522.742 544.587C520.502 544.426 518.269 544.169 516.036 543.901C514.084 543.662 512.122 543.406 510.184 543.071C509.012 542.87 507.834 542.669 506.662 542.466C505.42 542.252 504.184 541.971 502.948 541.722C501.772 541.487 500.602 541.18 499.436 540.911C498.507 540.696 497.593 540.432 496.674 540.189C495.936 539.993 495.2 539.795 494.467 539.578C493.357 539.248 492.235 538.945 491.136 538.581C489.991 538.201 488.846 537.82 487.703 537.437C486.783 537.131 485.879 536.767 484.969 536.427C484.163 536.13 483.369 535.818 482.576 535.495C481.511 535.054 480.436 534.639 479.383 534.17C478.212 533.641 477.039 533.117 475.863 532.59C474.907 532.159 473.97 531.674 473.026 531.214C472.27 530.847 471.518 530.471 470.771 530.076C469.758 529.54 468.722 529.036 467.728 528.466C465.968 527.46 464.204 526.467 462.481 525.393C461.595 524.841 460.685 524.311 459.82 523.729C458.688 522.965 457.559 522.199 456.424 521.434C456.045 521.178 455.67 520.906 455.3 520.635C454.694 520.192 454.099 519.738 453.496 519.298C452.727 518.735 451.985 518.138 451.235 517.552C450.5 516.975 449.746 516.415 449.032 515.811C447.972 514.918 446.913 514.022 445.854 513.128C445.142 512.523 444.466 511.873 443.778 511.245C443.164 510.688 442.548 510.139 441.957 509.561C441.038 508.656 440.113 507.754 439.191 506.846C438.396 506.071 437.651 505.238 436.891 504.432C434.082 501.463 431.429 498.344 428.956 495.088C427.637 493.355 426.343 491.604 425.077 489.829C423.747 487.964 422.452 486.08 421.203 484.161C420.631 483.287 420.043 482.425 419.498 481.538C418.809 480.42 418.116 479.299 417.429 478.183C416.254 476.276 415.177 474.312 414.106 472.35C412.166 468.801 410.297 465.205 408.627 461.518C407.707 459.487 406.801 457.459 405.931 455.411C405.068 453.384 404.26 451.332 403.442 449.283C403.042 448.285 402.685 447.267 402.31 446.26C402.012 445.453 401.701 444.65 401.419 443.834C400.989 442.581 400.558 441.328 400.126 440.077C399.729 438.924 399.392 437.753 399.032 436.593C398.442 434.711 397.931 432.809 397.401 430.909C397.086 429.797 396.848 428.659 396.573 427.535C396.342 426.603 396.128 425.673 395.93 424.735C395.823 424.216 395.711 423.698 395.603 423.179C395.472 422.563 395.347 421.949 395.218 421.336C394.979 420.197 394.819 419.04 394.622 417.894C394.483 417.093 394.36 416.297 394.251 415.493C394.079 414.209 393.874 412.923 393.743 411.632C393.596 410.161 393.449 408.691 393.304 407.218C393.152 405.7 393.082 404.167 392.976 402.642C392.916 401.803 392.879 400.961 392.846 400.119C392.816 399.453 392.793 398.789 392.763 398.123C392.693 396.623 392.679 395.123 392.639 393.626C392.56 390.648 392.574 387.671 392.564 384.694C392.555 381.685 392.585 378.678 392.61 375.67C392.662 369.516 392.708 363.369 392.64 357.214C392.605 354.097 392.528 350.984 392.426 347.87C392.332 345.051 392.116 342.243 391.897 339.431C391.776 338.216 391.67 336.999 391.507 335.792C391.275 334.109 391.052 332.428 390.769 330.754C390.482 329.046 390.16 327.36 389.82 325.663C389.556 324.356 389.245 323.057 388.938 321.756C388.55 320.242 388.163 318.725 387.741 317.219C387.265 315.525 386.765 313.841 386.252 312.158C385.303 309.024 384.204 305.941 383.087 302.864C382.3 300.835 381.515 298.81 380.641 296.817C380.122 295.634 379.596 294.457 379.048 293.288C378.999 293.18 378.944 293.071 378.893 292.966C378.45 292.031 377.978 291.105 377.511 290.181C377.042 289.331 376.578 288.475 376.076 287.643C375.442 286.603 374.783 285.594 374.105 284.579C373.752 284.097 373.396 283.614 373.042 283.133C372.633 282.579 372.173 282.053 371.742 281.517C371.458 281.165 371.161 280.82 370.855 280.481C370.334 279.905 369.789 279.346 369.254 278.785C369.043 278.579 368.833 278.374 368.621 278.171C367.908 277.482 367.189 276.804 366.455 276.133C365.525 275.282 364.533 274.5 363.559 273.709C362.802 273.131 362.045 272.557 361.266 272.005C360.456 271.432 359.628 270.894 358.8 270.354C358.33 270.077 357.867 269.8 357.402 269.522C356.847 269.197 356.259 268.912 355.695 268.603C355.439 268.468 355.18 268.338 354.918 268.21C354.113 267.82 353.284 267.47 352.462 267.114C351.863 266.886 351.261 266.661 350.66 266.43C350.083 266.212 349.485 266.042 348.899 265.853C348.051 265.622 347.207 265.391 346.349 265.205C345.511 265.02 344.673 264.881 343.83 264.741C343.246 264.678 342.659 264.619 342.076 264.555C341.507 264.496 340.928 264.491 340.359 264.464C339.498 264.461 338.64 264.463 337.781 264.494C336.857 264.534 335.94 264.607 335.022 264.683C334.069 264.802 333.118 264.923 332.167 265.075C331.173 265.24 330.19 265.443 329.206 265.652C328.223 265.909 327.251 266.163 326.28 266.466C325.309 266.768 324.364 267.112 323.409 267.463C322.759 267.74 322.107 268.018 321.459 268.298C320.802 268.577 320.169 268.925 319.532 269.244C318.712 269.703 317.895 270.159 317.105 270.664C316.623 270.975 316.128 271.269 315.665 271.606C315.189 271.949 314.715 272.297 314.243 272.64C313.652 273.126 313.06 273.612 312.469 274.098C312.271 274.284 312.067 274.468 311.868 274.657C311.563 274.942 311.258 275.227 310.95 275.509C310.445 276.049 309.936 276.591 309.432 277.13C309.26 277.337 309.086 277.547 308.916 277.756C308.652 278.075 308.389 278.399 308.126 278.719C307.703 279.313 307.275 279.904 306.855 280.497C306.715 280.721 306.576 280.946 306.435 281.17C306.221 281.515 306.005 281.861 305.79 282.208C305.493 282.76 305.194 283.315 304.896 283.868C304.544 284.521 304.25 285.214 303.941 285.89C303.696 286.505 303.451 287.118 303.207 287.736C302.948 288.39 302.753 289.077 302.53 289.746C302.364 290.335 302.199 290.923 302.032 291.514C301.836 292.203 301.699 292.919 301.533 293.618C301.213 294.971 301.005 296.361 300.778 297.732C300.489 299.854 300.246 301.973 300.038 304.103C299.817 306.375 299.676 308.651 299.482 310.923C299.307 312.992 299.149 315.068 298.839 317.122C298.528 319.194 298.211 321.273 297.645 323.295C297.378 324.248 297.111 325.197 296.796 326.139C296.49 327.065 296.139 327.969 295.786 328.88C295.628 329.283 295.435 329.682 295.257 330.076C295.084 330.461 294.92 330.85 294.73 331.23C294.197 332.294 293.644 333.34 293.068 334.38C292.146 336.048 291.046 337.618 289.916 339.154C288.759 340.726 287.435 342.153 286.048 343.521C285.462 344.098 284.835 344.626 284.215 345.164C283.839 345.493 283.411 345.778 283.013 346.085C282.766 346.268 282.521 346.451 282.262 346.623C281.845 346.899 281.43 347.173 281.015 347.447C280.609 347.716 280.156 347.931 279.733 348.171C278.465 348.89 277.13 349.435 275.762 349.928C275.153 350.144 274.505 350.332 273.866 350.458C273.354 350.557 272.841 350.656 272.328 350.756C271.701 350.822 271.071 350.882 270.443 350.944C270.227 350.967 270.001 350.976 269.774 350.98C268.861 350.994 267.873 350.9 267.02 350.838C266.493 350.804 265.971 350.689 265.451 350.613C263.488 350.323 261.584 349.69 259.709 349.073C258.774 348.764 257.858 348.372 256.955 347.981C255.975 347.563 255.021 347.116 254.059 346.655C253.943 346.6 253.825 346.541 253.712 346.483C253.013 346.137 252.32 345.769 251.642 345.377C250.685 344.834 249.746 344.253 248.826 343.655C247.942 343.079 247.082 342.491 246.221 341.876C245.35 341.256 244.511 340.593 243.668 339.935C243.1 339.491 242.545 339.031 242.002 338.562C241.492 338.118 240.992 337.666 240.496 337.212C239.99 336.748 239.489 336.282 238.99 335.814C238.448 335.311 237.946 334.761 237.425 334.233C237.088 333.894 236.749 333.557 236.425 333.202C235.411 332.092 234.403 330.988 233.437 329.837C232.447 328.663 231.51 327.46 230.573 326.249C229.786 325.232 229.066 324.161 228.319 323.117C228.12 322.839 227.926 322.558 227.734 322.273C227.204 321.497 226.698 320.703 226.198 319.907C225.436 318.701 224.689 317.491 223.955 316.269C222.412 313.705 220.991 311.075 219.57 308.44C217.169 303.998 214.905 299.478 212.846 294.866C211.727 292.358 210.627 289.837 209.507 287.331C208.302 284.639 207.007 281.997 205.646 279.384C204.554 277.404 203.439 275.443 202.254 273.516C201.018 271.51 199.717 269.558 198.371 267.627C197.507 266.457 196.635 265.3 195.71 264.179C194.747 263.013 193.736 261.897 192.707 260.793C191.631 259.712 190.547 258.647 189.425 257.618C188.258 256.548 187.052 255.521 185.837 254.508C184.662 253.597 183.479 252.705 182.254 251.863C181.132 251.098 179.987 250.383 178.829 249.677C178.662 249.575 178.494 249.475 178.327 249.374C176.767 248.496 175.201 247.633 173.594 246.842C172.256 246.186 170.908 245.565 169.55 244.962C169.059 244.743 168.571 244.526 168.075 244.313C167.867 244.229 167.657 244.141 167.45 244.057C165.118 243.114 162.779 242.191 160.394 241.387C160.227 241.33 160.058 241.274 159.892 241.222C158.097 240.62 156.297 240.051 154.488 239.505C153.999 239.355 153.507 239.207 153.014 239.061C150.459 238.355 147.901 237.695 145.322 237.088C145.307 237.085 145.292 237.081 145.277 237.078C144.939 237 144.604 236.923 144.266 236.849C141.999 236.346 139.714 235.942 137.427 235.556C137.32 235.538 137.21 235.519 137.104 235.503C134.85 235.184 132.601 234.899 130.33 234.685C128.156 234.477 125.976 234.367 123.791 234.262C122.487 234.235 121.185 234.213 119.879 234.214C118.407 234.218 116.944 234.253 115.476 234.295C112.65 234.371 109.83 234.649 107.016 234.924C104.754 235.193 102.499 235.488 100.251 235.858C98.0244 236.231 95.8201 236.691 93.6165 237.181C92.8461 237.375 92.0756 237.57 91.3051 237.764C90.4134 237.993 89.5354 238.273 88.6533 238.531C88.1861 238.669 87.7214 238.812 87.2587 238.966C86.0097 239.377 84.7752 239.837 83.5428 240.288C81.9622 240.912 80.3844 241.536 78.8327 242.229C76.9303 243.08 75.044 243.957 73.1714 244.864C72.64 245.123 72.105 245.383 71.574 245.645C68.7104 247.061 65.8748 248.536 63.0549 250.041C59.1498 252.211 55.2992 254.461 51.548 256.884C47.7703 259.316 44.0972 261.893 40.4718 264.541C36.894 267.246 33.3869 270.027 30.0252 273.001C26.7903 275.865 23.6656 278.838 20.554 281.836C16.7454 285.533 12.9239 289.206 8.99307 292.768C7.06247 294.513 5.11679 296.233 3.19273 297.985C2.12744 298.956 1.06745 299.932 4.02839e-05 300.902L249.504 0L847.767 496.072Z" fill="#065460"/>
</svg>
