<svg width="22" height="22" viewBox="0 0 22 22" fill="none" xmlns="http://www.w3.org/2000/svg">
<path d="M21.2326 11C21.2326 12.3438 20.9679 13.6744 20.4537 14.9158C19.9394 16.1573 19.1857 17.2853 18.2355 18.2355C17.2853 19.1857 16.1573 19.9394 14.9158 20.4537C13.6744 20.9679 12.3438 21.2326 11 21.2326C9.65624 21.2326 8.32564 20.9679 7.08417 20.4537C5.8427 19.9394 4.71467 19.1857 3.76449 18.2355C2.81431 17.2853 2.06058 16.1573 1.54635 14.9158C1.03211 13.6744 0.767442 12.3438 0.767442 11C0.767442 9.65624 1.03212 8.32564 1.54635 7.08417C2.06058 5.8427 2.81431 4.71467 3.76449 3.76449C4.71467 2.81431 5.8427 2.06058 7.08417 1.54635C8.32564 1.03211 9.65624 0.767442 11 0.767442C12.3438 0.767442 13.6744 1.03212 14.9158 1.54635C16.1573 2.06058 17.2853 2.81431 18.2355 3.76449C19.1857 4.71467 19.9394 5.8427 20.4537 7.08417C20.9679 8.32564 21.2326 9.65624 21.2326 11L21.2326 11Z" stroke="#FEFFFC" stroke-width="1.5"/>
</svg>
