<svg width="22" height="22" viewBox="0 0 22 22" fill="none" xmlns="http://www.w3.org/2000/svg">
<path d="M0.767442 11H21.2326M15.093 11C15.093 12.3438 14.9872 13.6744 14.7815 14.9158C14.5758 16.1573 14.2743 17.2853 13.8942 18.2355C13.5141 19.1857 13.0629 19.9394 12.5663 20.4537C12.0697 20.9679 11.5375 21.2326 11 21.2326C10.4625 21.2326 9.93026 20.9679 9.43367 20.4537C8.93708 19.9394 8.48587 19.1857 8.1058 18.2355C7.72572 17.2853 7.42423 16.1573 7.21854 14.9158C7.01285 13.6744 6.90698 12.3438 6.90698 11C6.90698 9.65624 7.01285 8.32564 7.21854 7.08417C7.42423 5.8427 7.72572 4.71467 8.1058 3.76449C8.48587 2.81431 8.93708 2.06058 9.43367 1.54635C9.93026 1.03211 10.4625 0.767442 11 0.767442C11.5375 0.767442 12.0697 1.03212 12.5663 1.54635C13.0629 2.06058 13.5141 2.81431 13.8942 3.76449C14.2743 4.71467 14.5758 5.8427 14.7815 7.08417C14.9872 8.32564 15.093 9.65624 15.093 11Z" stroke="#FEFFFC" stroke-width="1.5" stroke-linecap="round"/>
</svg>
